<svg xmlns="http://www.w3.org/2000/svg" xmlns:xlink="http://www.w3.org/1999/xlink" width="13" height="16" viewBox="0 0 13 16"><defs><path id="fhnpa" d="M1425.781 620.615a1.338 1.338 0 0 1 0 1.897l-4.067 4.048h7.056a1 1 0 0 1 1 1v.66a1 1 0 0 1-1 1h-7.05l4.061 4.04a1.338 1.338 0 0 1 0 1.898 1.352 1.352 0 0 1-1.906 0l-6.353-6.323a1.336 1.336 0 0 1 0-1.897h.001l6.352-6.323a1.35 1.35 0 0 1 1.906 0z"/></defs><g><g transform="translate(-1417 -620)"><use fill="#212125" xlink:href="#fhnpa"/></g></g></svg>