<svg xmlns="http://www.w3.org/2000/svg" xmlns:xlink="http://www.w3.org/1999/xlink" width="14" height="16" viewBox="0 0 14 16"><defs><path id="hpiba" d="M1480.627 620.132l6.334 6.305.002.002a1.333 1.333 0 0 1 0 1.891l-6.336 6.306a1.348 1.348 0 0 1-1.9 0 1.335 1.335 0 0 1 0-1.892l4.043-4.024h-7.02a1 1 0 0 1-1-1v-.67a1 1 0 0 1 1-1h7.021l-4.045-4.026a1.335 1.335 0 0 1 0-1.892 1.347 1.347 0 0 1 1.901 0z"/></defs><g><g transform="translate(-1474 -619)"><use fill="#212125" xlink:href="#hpiba"/></g></g></svg>