<svg xmlns="http://www.w3.org/2000/svg" xmlns:xlink="http://www.w3.org/1999/xlink" width="60" height="64" viewBox="0 0 60 64"><defs><path id="jrzwa" d="M441.707 6668.707l-1.414-1.414 6.293-6.293H462a1 1 0 0 0 1-1v-20a1 1 0 0 0-1-1h-32a1 1 0 0 0-1 1v9h-2v-9c0-1.655 1.346-3 3-3h32c1.654 0 3 1.345 3 3v20c0 1.654-1.346 3-3 3h-14.586zM443 6651h-2v-2h2zm4 0h-2v-2h2zm4 0h-2v-2h2zm-44 50h-2v-7c0-8.01 4.445-9.7 9.152-11.488 1.677-.638 3.409-1.296 5.148-2.265l2.226-3.34.474.079v-2.52c-.953-.886-3.158-3.505-3.99-9.325L418 6665v-4c0-6.636 3.364-10 10-10s10 3.364 10 10l-.01 4.141c-.832 5.82-3.037 8.439-3.99 9.324v2.52l.474-.078 2.226 3.34c1.74.969 3.471 1.627 5.148 2.265C446.555 6684.3 451 6685.99 451 6694v7h-2v-7c0-6.631-3.128-7.82-7.863-9.62-1.53-.58-3.241-1.231-4.96-2.142l-3.98 3.979-4.197-2.1-4.197 2.1-3.98-3.98c-1.72.912-3.43 1.562-4.96 2.144-4.735 1.8-7.863 2.988-7.863 9.619zm13-36.072c.861 5.917 3.2 7.96 3.518 8.212 1.763.845 4.456.86 4.483.86.025 0 2.717-.015 4.478-.859.313-.25 2.66-2.305 3.521-8.213v-2.31l-2.954 1.478-10-4-3.046 1.522zm8-11.928c-4.944 0-7.44 1.97-7.916 6.34l2.87-1.436 10 4 3.035-1.517c-.18-5.102-2.666-7.387-7.989-7.387zm-4 24.32l4 .666 4-.667v-1.875c-1.909.548-3.896.556-4 .556-.105 0-2.092-.008-4-.556zm4 4.562l3.803 1.9 2.91-2.91-1.187-1.78-5.526.921-5.526-.92-1.187 1.78 2.91 2.91zm1 11.118h-2v-2h2zm0-4h-2v-2h2zm-14 12h-2v-6h2zm28 0h-2v-6h2z"/><linearGradient id="jrzwb" x1="465" x2="405" y1="6693" y2="6645" gradientUnits="userSpaceOnUse"><stop offset="0" stop-color="#ff8400"/><stop offset="1" stop-color="#9f00da"/></linearGradient></defs><g><g transform="translate(-405 -6637)"><use xlink:href="#jrzwa"/><use fill="url(#jrzwb)" xlink:href="#jrzwa"/></g></g></svg>