<svg xmlns="http://www.w3.org/2000/svg" xmlns:xlink="http://www.w3.org/1999/xlink" width="64" height="64" viewBox="0 0 64 64"><defs><path id="wqrqa" d="M467 7532h-2v-17a1 1 0 0 1 1-1h11v-3a1 1 0 0 1 1-1h22a1 1 0 0 1 1 1v3h11a1 1 0 0 1 1 1v2h-2v-1h-10v5a1 1 0 0 1-1 1h-22a1 1 0 0 1-1-1v-5h-10zm45 42h-46a1 1 0 0 1-1-1v-27h2v26h44v-32h2v33a1 1 0 0 1-1 1zm-33-54h20v-8h-20zm-6 12h-2v-13a1 1 0 0 1 1-1h3v2h-2zm33 36h-34a1 1 0 0 1-1-1v-21h2v20h32v-46h-2v-2h3a1 1 0 0 1 1 1v48a1 1 0 0 1-1 1zm-5-16h-24v-2h24zm0 4h-24v-2h24zm0-8h-24v-2h24zm0-20h-24v-2h24zm0 4h-24v-2h24zm-11 28h-13v-2h13zm6-42h-14a1 1 0 0 1-1-1v-3h2v2h12v-2h2v3a1 1 0 0 1-1 1zm-19 26h-14c-1.103 0-2-.898-2-2v-4h-2v-2h2c0-1.103.897-2 2-2h14c1.103 0 2 .897 2 2v2h2v-2c0-1.103.897-2 2-2h14c1.103 0 2 .897 2 2h2v2h-2v4c0 1.102-.897 2-2 2h-14c-1.103 0-2-.898-2-2v-2h-2v2c0 1.102-.897 2-2 2zm-14-8v6H477l-.001-6zm20 0v6H497l-.001-6zm38-15h-4v25h4zm-4 39h4v-12h-4zm-2-46h8v53a.998.998 0 0 1-.106.447l-3 6a1 1 0 0 1-1.789 0l-3-6A1 1 0 0 1 515 7567v-46h-2v17h-2v-19h4zm2 5h4v-3h-4zm0 47.763l2 4 2-4V7562h-4z"/><linearGradient id="wqrqb" x1="523" x2="459" y1="7568" y2="7516" gradientUnits="userSpaceOnUse"><stop offset="0" stop-color="#ff8400"/><stop offset="1" stop-color="#9f00da"/></linearGradient></defs><g><g transform="translate(-459 -7510)"><use fill="#2d2032" xlink:href="#wqrqa"/><use fill="url(#wqrqb)" xlink:href="#wqrqa"/></g></g></svg>