<svg xmlns="http://www.w3.org/2000/svg" xmlns:xlink="http://www.w3.org/1999/xlink" width="19" height="17" viewBox="0 0 19 17"><defs><path id="lpeba" d="M1558.872 8676.867l-4.778-3.243-2.562 1.846a.753.753 0 0 1-1.167-.419l-1.287-4.878-4.598-1.759a.75.75 0 0 1-.01-1.401l17.483-6.96a.764.764 0 0 1 .339-.059c.175.01.347.083.481.215a.75.75 0 0 1 .21.687l-2.95 15.49a.753.753 0 0 1-1.161.48zm-.103-1.887l2.297-12.052-8.293 7.983 1.72 1.167c.008.004.014.01.02.013zm-7.228-1.37l1.228-.885-1.608-1.09a.758.758 0 0 1-.19-.185zm-4.722-5.913l3.157 1.208a.751.751 0 0 1 .458.51l.4 1.519a.751.751 0 0 1 .227-.464l7.902-7.607z"/></defs><g><g transform="translate(-1544 -8660)"><use xlink:href="#lpeba"/></g></g></svg>