<svg xmlns="http://www.w3.org/2000/svg" xmlns:xlink="http://www.w3.org/1999/xlink" width="12" height="15" viewBox="0 0 12 15"><defs><path id="j3jla" d="M1450.994 8671.398c0 .745-.14 1.401-.423 1.965a3.992 3.992 0 0 1-1.137 1.398 5.256 5.256 0 0 1-1.858.944c-.674.19-1.53.282-2.57.282h-6v-14.983h5.295c1.1 0 1.935.042 2.501.128.568.082 1.1.256 1.595.524.536.29.938.677 1.202 1.159.265.484.399 1.04.399 1.673 0 .732-.182 1.38-.55 1.951-.364.57-.87.99-1.512 1.26v.08c.925.194 1.667.59 2.223 1.192.557.601.835 1.411.835 2.427zm-5.006-6.9a1.116 1.116 0 0 0-.58-.552c-.248-.11-.54-.17-.88-.18-.34-.01-.846-.012-1.515-.012h-.262v3.167h.474c.643 0 1.096-.005 1.355-.019.257-.012.525-.082.8-.21.299-.14.508-.336.622-.582.114-.252.172-.543.172-.866 0-.244-.062-.494-.186-.745zm1.13 6.831c0-.463-.092-.824-.281-1.086-.19-.264-.471-.46-.846-.593-.227-.09-.542-.138-.94-.147-.4-.01-.936-.015-1.605-.015h-.695v3.752h.204c.978 0 1.656-.008 2.03-.022a3.168 3.168 0 0 0 1.147-.27c.344-.149.591-.365.75-.65.157-.284.236-.608.236-.969z"/></defs><g><g transform="translate(-1439 -8661)"><use xlink:href="#j3jla"/></g></g></svg>