<svg xmlns="http://www.w3.org/2000/svg" xmlns:xlink="http://www.w3.org/1999/xlink" width="139" height="139" viewBox="0 0 139 139"><defs><path id="ep4ra" d="M428.5 515c.837 0 1.67.014 2.5.044v10.433a60.105 60.105 0 0 0-2.5-.052c-20.663 0-38.848 10.609-49.406 26.676l-8.808-5.582C382.694 527.54 404.132 515 428.5 515z"/><path id="ep4rb" d="M498 584.5c0 38.384-31.116 69.5-69.5 69.5S359 622.884 359 584.5c0-14.259 4.294-27.514 11.659-38.545l8.754 5.665c-6.308 9.399-9.988 20.71-9.988 32.88 0 32.626 26.449 59.075 59.075 59.075 32.626 0 59.075-26.45 59.075-59.075 0-31.789-25.108-57.713-56.575-59.023v-10.433c37.226 1.316 67 31.909 67 69.456z"/><linearGradient id="ep4rc" x1="498" x2="359" y1="641.04" y2="528" gradientUnits="userSpaceOnUse"><stop offset="0" stop-color="#ff8400"/><stop offset="1" stop-color="#9f00da"/></linearGradient></defs><g><g transform="translate(-359 -515)"><use fill="#fff" xlink:href="#ep4ra"/></g><g transform="translate(-359 -515)"><use fill="#121212" xlink:href="#ep4rb"/><use fill="url(#ep4rc)" xlink:href="#ep4rb"/></g></g></svg>