<svg xmlns="http://www.w3.org/2000/svg" xmlns:xlink="http://www.w3.org/1999/xlink" width="66" height="64" viewBox="0 0 66 64"><defs><path id="8q8ca" d="M464 1270.027h-3v3.998h-2v3.997h-12v-3.997h-2v3.997h-12v-3.997h-2v3.997h-12v-3.997h-2v3.997h-12v-3.997h-2v-3.998h-3a1 1 0 0 1-1-1v-1.998a1 1 0 0 1 .51-.87l32-17.989a.998.998 0 0 1 .98 0l32 17.989a1 1 0 0 1 .51.87v1.999a1 1 0 0 1-1 1zm-63-1.999h62v-.414l-31-17.426-31 17.426zm48 7.995h8v-1.998h-8zm8 23.985h-8v1.998h8zm-10-1.999h2v-17.988h2v17.988h4v-17.988h2v17.988h2v3.997h2v3.998h3V1312h-64v-5.996h3v-3.998h2v-3.997h2v-17.988h2v17.988h4v-17.988h2v17.988h2v3.997h2v-3.997h2v-17.988h2v17.988h4v-17.988h2v17.988h2v3.997h2v-3.997h2v-17.988h2v17.988h4v-17.988h2v17.988h2v3.997h2zm-12-21.986h8v-1.998h-8zm8 23.985h-8v1.998h8zm-22-23.985h8v-1.998h-8zm8 23.985h-8v1.998h8zm-22-23.985h8v-1.998h-8zm8 23.985h-8v1.998h8zm-10-27.982h54v-1.999h-54zm27-5.996c-2.757 0-5-2.242-5-4.997a5.005 5.005 0 0 1 5-4.997c2.757 0 5 2.242 5 4.997a5.005 5.005 0 0 1-5 4.997zm0-7.995c-1.654 0-3 1.345-3 2.998a3.002 3.002 0 0 0 3 2.998c1.654 0 3-1.345 3-2.998a3.002 3.002 0 0 0-3-2.998zm-7 3.997h-2v-1.998h2zm16 0h-2v-1.998h2zm18 41.973h-54v1.999h54zm-57 5.996h60v-1.998h-60z"/><linearGradient id="8q8cb" x1="465" x2="399" y1="1307.04" y2="1253" gradientUnits="userSpaceOnUse"><stop offset="0" stop-color="#ff8400"/><stop offset="1" stop-color="#9f00da"/></linearGradient></defs><g><g transform="translate(-399 -1248)"><use xlink:href="#8q8ca"/><use fill="url(#8q8cb)" xlink:href="#8q8ca"/></g></g></svg>