<svg xmlns="http://www.w3.org/2000/svg" xmlns:xlink="http://www.w3.org/1999/xlink" width="64" height="64" viewBox="0 0 64 64"><defs><path id="ig8va" d="M448.948 1554a.994.994 0 0 1-.563-.175l-2.272-1.558a29.692 29.692 0 0 1-16.116 4.733 29.692 29.692 0 0 1-16.117-4.733l-2.272 1.558a.994.994 0 0 1-1.141-.01 1 1 0 0 1-.384-1.078l.74-2.722c-6.567-5.507-10.75-13.78-10.75-23.015 0-2.504.308-4.938.887-7.264l-2.497-1.947a1 1 0 0 1 .613-1.79h3.08c4.138-10.488 14.01-18.098 25.718-18.925l1.18-3.402a.997.997 0 0 1 1.884 0l1.18 3.402c11.71.827 21.581 8.437 25.719 18.925h3.08a1 1 0 1 1 .612 1.79l-2.496 1.947c.58 2.326.887 4.76.887 7.264 0 9.234-4.184 17.508-10.75 23.015l.74 2.722a1 1 0 0 1-.962 1.263zm-18.951-12.788l-14.319 9.821a27.706 27.706 0 0 0 14.319 3.967c5.23 0 10.128-1.449 14.318-3.967zm-14.105-9.832l-13.198-10.292a28.075 28.075 0 0 0-.626 5.912c0 8.288 3.61 15.746 9.337 20.877zm5.416-15.38l5.848-16.857c-10.278 1.046-18.926 7.702-22.842 16.856zm17.377 0h16.994c-3.916-9.155-12.564-15.811-22.842-16.857zm5.415 15.38l4.488 16.497c5.727-5.131 9.337-12.59 9.337-20.877 0-2.028-.216-4.006-.626-5.912zm-14.103 7.62c.196 0 .393.058.563.175l15.562 10.675c.263-.187.522-.38.779-.575l-4.9-18.013a1.001 1.001 0 0 1 .35-1.051l14.406-11.234a27.796 27.796 0 0 0-.312-.977h-18.469a.997.997 0 0 1-.942-.672l-6.356-18.32a28.276 28.276 0 0 0-1.363 0l-6.356 18.32a.997.997 0 0 1-.942.672h-18.47c-.11.323-.213.649-.311.977l14.406 11.234c.318.248.456.663.35 1.051l-4.9 18.013c.256.196.516.387.78.575l15.561-10.675a.995.995 0 0 1 .564-.175zm13.964-27h-1.995v-2h1.995zm-25.934 0h-1.995v-2h1.995zm-6.982 22h-1.995v-2h1.995zm39.898 0h-1.995v-2h1.995zm-19.95 14H429v-2h1.995zm6.983-9a.987.987 0 0 1-.528-.153l-7.451-4.667-7.452 4.667a.997.997 0 0 1-1.474-1.164l2.78-8.362-6.473-5.562a1 1 0 0 1 .65-1.76h7.362l3.714-7.446c.338-.678 1.447-.678 1.785 0l3.714 7.447h7.363a1 1 0 0 1 .65 1.759l-6.474 5.562 2.78 8.362a1.002 1.002 0 0 1-.946 1.317zm-7.98-7c.184 0 .367.05.529.152l5.628 3.526-2.116-6.362a1.001 1.001 0 0 1 .297-1.075l4.936-4.241h-5.284a.997.997 0 0 1-.892-.553l-3.097-6.21-3.098 6.21a.997.997 0 0 1-.892.553h-5.284l4.936 4.24c.307.264.425.69.296 1.076l-2.115 6.362 5.628-3.526a.993.993 0 0 1 .529-.152zm.998-4h-1.995v-2h1.995z"/><linearGradient id="ig8vb" x1="462.08" x2="398.08" y1="1551" y2="1499" gradientUnits="userSpaceOnUse"><stop offset="0" stop-color="#ff8400"/><stop offset="1" stop-color="#9f00da"/></linearGradient></defs><g><g transform="translate(-398 -1493)"><use xlink:href="#ig8va"/><use fill="url(#ig8vb)" xlink:href="#ig8va"/></g></g></svg>