<svg xmlns="http://www.w3.org/2000/svg" xmlns:xlink="http://www.w3.org/1999/xlink" width="64" height="64" viewBox="0 0 64 64"><defs><path id="hqyja" d="M1045 1300.005h-2a4.003 4.003 0 0 1 4-3.998h11c.719 0 1.35-.38 1.703-.951v-.002l.001-.001c.188-.304.296-.662.296-1.045a2.002 2.002 0 0 0-2-1.999h-9.176l-11-3.998H1030v13.993h4.17l.163.057 16.838 5.94h1.585l24.63-12.8c.274-.315.614-.843.614-1.193a2 2 0 0 0-1.862-1.993l-15.256 4.764a3.99 3.99 0 0 1-2.882 1.227h-11c-1.103 0-2 .897-2 2zm-6.824-13.992l11 3.997H1058a4.003 4.003 0 0 1 3.986 4.337l14.014-4.337c2.206 0 4 1.794 4 3.998 0 1.37-1.16 2.572-1.292 2.705l-.247.182-25.217 13.105h-2.415l-.162-.056-16.838-5.94H1030a2.002 2.002 0 0 1-2 1.998h-12v-1.999h12v-17.99h-12v-2h12c1.102 0 2 .898 2 2zM1026 1302.004h-2v-1.999h2zm-4 0h-2v-1.999h2zm27-22.988h2c0 1.102.897 2 2 2 1.102 0 2-.898 2-2 0-.649-1.424-1.645-2.41-2.085-.599-.27-3.59-1.72-3.59-3.911a4.005 4.005 0 0 1 3-3.872v-2.125h2v2.125c1.723.445 3 2.012 3 3.872h-2a2.002 2.002 0 0 0-2-2c-1.103 0-2 .898-2 2 0 .649 1.424 1.645 2.41 2.086.599.269 3.59 1.718 3.59 3.91a4.005 4.005 0 0 1-3 3.872v2.125h-2v-2.125a4.005 4.005 0 0 1-3-3.872zm12-1.999h-2v-1.999h2zm-14 0h-2v-1.999h2zm-2.895-27.537a1 1 0 0 1 .448-1.342l4-1.999a1 1 0 0 1 .894 0l3.553 1.776 3.553-1.776a1 1 0 0 1 .894 0l4 2a1 1 0 0 1 .447 1.34l-3.459 6.916a3 3 0 0 1 1.174 4.111c4.634 1.467 12.39 6.727 12.39 21.509v7.995h-2v-7.995c0-16.597-10.253-19.99-13-19.99h-8c-.129 0-12.999.229-12.999 19.99v1.999h-2v-2c0-16.018 8.065-20.369 12.368-21.549a3 3 0 0 1 1.197-4.07zm15.553 0l-2.658-1.329-3.553 1.775a1 1 0 0 1-.894 0l-3.553-1.775-2.658 1.329 3.276 6.549h6.764zm-11.658 9.547a1 1 0 0 0 1 1h8a1 1 0 0 0 0-2h-8a1 1 0 0 0-1 1z"/><linearGradient id="hqyjb" x1="1080" x2="1016" y1="1304.03" y2="1252" gradientUnits="userSpaceOnUse"><stop offset="0" stop-color="#ff8400"/><stop offset="1" stop-color="#9f00da"/></linearGradient></defs><g><g transform="translate(-1016 -1246)"><use xlink:href="#hqyja"/><use fill="url(#hqyjb)" xlink:href="#hqyja"/></g></g></svg>