<svg xmlns="http://www.w3.org/2000/svg" xmlns:xlink="http://www.w3.org/1999/xlink" width="64" height="64" viewBox="0 0 64 64"><defs><path id="fh6ua" d="M788.804 7554.02l6.848-1.96c1.124-.522 2.348-1.481 2.348-2.06v-4.88c-2.035-2.927-3-7.108-3-11.12v-3a4.005 4.005 0 0 1 3-3.873v-2.128a1.001 1.001 0 0 1 1.447-.894l5.789 2.895H811c2.205 0 4 1.794 4 4v3c0 3.12-.584 6.344-1.801 9h3.8c.552 0 1.001-.449 1.001-1v-1.676a6.958 6.958 0 0 1-3 .676v-2c2.757 0 5-2.244 5-5 0-2.757-2.243-5-5-5v-2a6.98 6.98 0 0 1 1.972.283c-.34-4.298-3.713-7.755-7.972-8.228v.945a1 1 0 0 1-1.317.948l-5.841-1.947c-4.65.08-8.451 3.704-8.814 8.282A6.98 6.98 0 0 1 795 7527v2c-2.757 0-5 2.243-5 5 0 2.756 2.243 5 5 5v2c-3.86 0-7-3.14-7-7a6.997 6.997 0 0 1 3-5.742V7528c0-6.066 4.935-11 11-11 .107 0 .214.017.316.052l4.684 1.56V7518a1 1 0 0 1 1-1c6.065 0 11 4.934 11 11v.258a6.997 6.997 0 0 1 3 5.742 6.977 6.977 0 0 1-2 4.894V7542c0 1.654-1.346 3-3 3h-4.918l-.082.12v4.88c0 .636 1.365 1.604 2.346 2.058l6.929 1.98c4.095.816 6.902 4.647 8.047 6.506A29.839 29.839 0 0 0 835 7543c0-16.542-13.458-30-30-30s-30 13.458-30 30a29.839 29.839 0 0 0 5.678 17.545c1.148-1.86 3.97-5.695 8.126-6.526zm32 1.96l-6.945-1.98h-2.445l-3.707 3.707a1 1 0 0 1-.707.293h-4a1 1 0 0 1-.707-.293l-3.707-3.707h-2.445l-6.866 1.962c-4.048.812-6.715 5.273-7.272 6.282C787.51 7568.815 795.776 7573 805 7573s17.49-4.185 22.997-10.755c-.56-1.011-3.232-5.472-7.193-6.265zM810 7550v-2.72c-1.369 1.08-3.03 1.72-5 1.72-1.97 0-3.631-.64-5-1.72v2.72c0 .766-.366 1.442-.867 2.009.216.029.418.128.574.284l3.707 3.707h3.172l3.707-3.707a1 1 0 0 1 .574-.284c-.502-.567-.867-1.243-.867-2.01zm-10-23.382V7528a1 1 0 0 1-1 1c-1.103 0-2 .897-2 2v3c0 6.26 2.503 13 8 13 1.842 0 3.349-.758 4.537-2H806c-1.654 0-3-1.346-3-3h2c0 .551.449 1 1 1h4.979c1.369-2.485 2.02-5.805 2.02-9v-3c0-1.103-.896-2-1.999-2h-6a.998.998 0 0 1-.447-.106zm6 40.382h-2v-2h2zm0-4h-2v-2h2zm0 8h-2v-2h2zm12-6h-8v-2h8zm-13 10c-17.645 0-32-14.356-32-32 0-17.645 14.355-32 32-32s32 14.355 32 32c0 17.644-14.355 32-32 32z"/><linearGradient id="fh6ub" x1="837" x2="773" y1="7569" y2="7517" gradientUnits="userSpaceOnUse"><stop offset="0" stop-color="#ff8400"/><stop offset="1" stop-color="#9f00da"/></linearGradient></defs><g><g transform="translate(-773 -7511)"><use fill="#2d2032" xlink:href="#fh6ua"/><use fill="url(#fh6ub)" xlink:href="#fh6ua"/></g></g></svg>