<svg xmlns="http://www.w3.org/2000/svg" xmlns:xlink="http://www.w3.org/1999/xlink" width="64" height="64" viewBox="0 0 64 64"><defs><path id="tmn7a" d="M1006 1006.005h-2a4.003 4.003 0 0 1 4-3.997h11c.719 0 1.35-.381 1.703-.952v-.002h.001c.188-.305.296-.663.296-1.045a2.002 2.002 0 0 0-2-2h-9.176l-11-3.998H991v13.993h4.17l.163.056 16.838 5.94h1.585l24.63-12.8c.274-.314.614-.842.614-1.191a2 2 0 0 0-1.862-1.995l-15.256 4.765a3.99 3.99 0 0 1-2.882 1.227h-11c-1.103 0-2 .897-2 2zm-6.824-13.992l11 3.997H1019a4.003 4.003 0 0 1 3.986 4.337L1037 996.01c2.206 0 4 1.794 4 3.998 0 1.37-1.16 2.572-1.292 2.705l-.247.182-25.217 13.105h-2.415l-.162-.057-16.838-5.94H991a2.002 2.002 0 0 1-2 1.999h-12v-1.999h12v-17.99h-12v-2h12c1.102 0 2 .898 2 2zM987 1008.004h-2v-1.999h2zm-4 0h-2v-1.999h2zm27-22.987h2c0 1.101.897 1.999 2 1.999 1.102 0 2-.898 2-2 0-.649-1.424-1.645-2.41-2.085-.599-.27-3.59-1.72-3.59-3.912a4.004 4.004 0 0 1 3-3.87v-2.126h2v2.125c1.723.445 3 2.011 3 3.871h-2c0-1.101-.898-1.999-2-1.999-1.103 0-2 .898-2 2 0 .649 1.424 1.645 2.41 2.085.599.27 3.59 1.72 3.59 3.912a4.005 4.005 0 0 1-3 3.87v2.126h-2v-2.125a4.005 4.005 0 0 1-3-3.871zm12-2h-2v-1.999h2zm-14 0h-2v-1.999h2zm-2.895-27.537a1 1 0 0 1 .448-1.342l4-1.999c.281-.14.613-.14.894 0l3.553 1.775 3.553-1.775c.281-.14.613-.14.894 0l4 2a1 1 0 0 1 .447 1.34l-3.459 6.915a3.001 3.001 0 0 1 1.174 4.112c4.634 1.467 12.39 6.727 12.39 21.509v7.995h-2v-7.995c0-16.597-10.253-19.99-13-19.99h-8c-.129 0-13 .229-13 19.99v1.999h-2v-2c0-16.018 8.066-20.369 12.369-21.549a3.001 3.001 0 0 1 1.197-4.07zm15.553 0l-2.658-1.33-3.553 1.776a1 1 0 0 1-.894 0l-3.553-1.775-2.658 1.329 3.276 6.548h6.764zM1009 965.027a1 1 0 0 0 1 1h8a1 1 0 0 0 0-2h-8a1 1 0 0 0-1 1z"/><linearGradient id="tmn7b" x1="1041" x2="977" y1="1010.03" y2="958" gradientUnits="userSpaceOnUse"><stop offset="0" stop-color="#ff8400"/><stop offset="1" stop-color="#9f00da"/></linearGradient></defs><g><g transform="translate(-977 -952)"><use xlink:href="#tmn7a"/><use fill="url(#tmn7b)" xlink:href="#tmn7a"/></g></g></svg>