<svg xmlns="http://www.w3.org/2000/svg" xmlns:xlink="http://www.w3.org/1999/xlink" width="64" height="64" viewBox="0 0 64 64"><defs><path id="n9wma" d="M992 1323h-6.127a4.007 4.007 0 0 1-3.873 3c-2.206 0-4-1.795-4-4 0-2.206 1.794-4 4-4a4.007 4.007 0 0 1 3.873 2.999H992zm-10-3c-1.103 0-2 .896-2 2 0 1.103.897 2 2 2s2-.897 2-2c0-1.104-.897-2-2-2zm11.445-6.168l-4.574-3.05a3.989 3.989 0 0 1-2.871 1.217c-2.206 0-4-1.794-4-4 0-2.205 1.794-4 4-4a4.005 4.005 0 0 1 3.863 5.04l4.692 3.128zM986 1306c-1.103 0-2 .896-2 2 0 1.102.897 2 2 2s2-.898 2-2c0-1.104-.897-2-2-2zm10-4c-2.206 0-4-1.795-4-4 0-2.206 1.794-4 4-4s4 1.794 4 4a3.989 3.989 0 0 1-1.218 2.87l3.05 4.575-1.664 1.11-3.128-4.693c-.332.09-.68.137-1.04.137zm0-6.001c-1.103 0-2 .898-2 2 0 1.104.897 2 2 2s2-.896 2-2c0-1.102-.897-2-2-2zm32 27v-2h6.127a4.007 4.007 0 0 1 3.873-3c2.206 0 4 1.795 4 4 0 2.206-1.794 4-4 4a4.007 4.007 0 0 1-3.874-3zm10-3c-1.103 0-2 .897-2 2 0 1.104.897 2 2 2s2-.896 2-2c0-1.103-.897-2-2-2zm-11.445-6.167l-1.11-1.665 4.692-3.127A4.005 4.005 0 0 1 1034 1304c2.206 0 4 1.794 4 4 0 2.205-1.794 4-4 4a3.989 3.989 0 0 1-2.871-1.218zM1034 1306c-1.103 0-2 .896-2 2 0 1.102.897 2 2 2s2-.898 2-2c0-1.104-.897-2-2-2zm-10-4c-.36 0-.708-.048-1.04-.138l-3.128 4.692-1.664-1.11 3.05-4.574A3.989 3.989 0 0 1 1020 1298c0-2.206 1.794-4 4-4s4 1.794 4 4c0 2.205-1.794 4-4 4zm0-6.001c-1.103 0-2 .898-2 2 0 1.104.897 2 2 2s2-.896 2-2c0-1.102-.897-2-2-2zm-13 8h-2v-6.126a4.007 4.007 0 0 1-3-3.874c0-2.205 1.794-4 4-4s4 1.795 4 4a4.007 4.007 0 0 1-3 3.874zm-1-12c-1.103 0-2 .898-2 2 0 1.104.897 2 2 2s2-.896 2-2c0-1.102-.897-2-2-2zm15.445 39.832l1.11-1.664 4.574 3.05a3.988 3.988 0 0 1 2.87-1.218c2.207 0 4.001 1.795 4.001 4 0 2.206-1.794 4-4 4a4.005 4.005 0 0 1-3.863-5.04zM1034 1334c-1.103 0-2 .896-2 2 0 1.102.897 2 2 2s2-.898 2-2c0-1.104-.897-2-2-2zm-10 16c-2.206 0-4-1.795-4-4 0-1.126.467-2.144 1.217-2.872l-3.05-4.574 1.665-1.109 3.128 4.691A4.005 4.005 0 0 1 1028 1346c0 2.206-1.794 4-4 4zm0-6c-1.103 0-2 .896-2 2 0 1.103.897 2 2 2s2-.897 2-2c0-1.104-.897-2-2-2zm-30.555-13.833l1.11 1.664-4.692 3.128A4.005 4.005 0 0 1 986 1340c-2.206 0-4-1.794-4-4 0-2.205 1.794-4 4-4 1.125 0 2.143.468 2.87 1.218zM986 1334c-1.103 0-2 .896-2 2 0 1.102.897 2 2 2s2-.898 2-2c0-1.104-.897-2-2-2zm10 16c-2.206 0-4-1.795-4-4a4.004 4.004 0 0 1 5.04-3.864l3.128-4.69 1.664 1.108-3.05 4.574A3.989 3.989 0 0 1 1000 1346c0 2.206-1.794 4-4 4zm0-6c-1.103 0-2 .896-2 2 0 1.103.897 2 2 2s2-.897 2-2c0-1.104-.897-2-2-2zm13-4h2v6.126c1.723.445 3 2.013 3 3.873 0 2.206-1.794 4-4 4s-4-1.794-4-4a4.007 4.007 0 0 1 3-3.873zm1 8c-1.103 0-2 .897-2 2s.897 2 2 2 2-.897 2-2-.897-2-2-2zm0-10c-8.822 0-16-7.178-16-16 0-8.823 7.178-16 16-16s16 7.177 16 16c0 8.822-7.178 16-16 16zm-9.788-26.001h2.713c.493-1.11 1.068-2.095 1.711-2.931a14.046 14.046 0 0 0-4.424 2.93zm19.576 0a14.046 14.046 0 0 0-4.424-2.931c.643.836 1.218 1.822 1.711 2.93zm-23.753 9h4.981c.085-2.553.492-4.928 1.152-7h-3.651a13.916 13.916 0 0 0-2.482 7zm27.93 0a13.916 13.916 0 0 0-2.482-7h-3.651c.66 2.072 1.067 4.447 1.151 7zm-4.176 11h-2.713c-.494 1.11-1.07 2.096-1.712 2.932a14.046 14.046 0 0 0 4.425-2.932zm-19.578 0a14.046 14.046 0 0 0 4.425 2.932c-.643-.836-1.218-1.822-1.712-2.932zm23.754-9h-4.982c-.084 2.554-.491 4.928-1.151 7h3.652a13.917 13.917 0 0 0 2.48-7zm-27.93 0a13.917 13.917 0 0 0 2.481 7h3.652c-.66-2.072-1.067-4.447-1.152-7zm9.12-11H1009v-3.85c-1.47.442-2.807 1.837-3.844 3.85zm9.69 0c-1.038-2.013-2.376-3.408-3.845-3.85v3.85zm0 20H1011v3.851c1.47-.442 2.807-1.838 3.845-3.85zm-9.69 0c1.038 2.013 2.375 3.41 3.845 3.851V1332zm-2.136-11h5.98v-7h-4.702c-.721 2.024-1.183 4.429-1.278 7zm13.962 0c-.096-2.571-.557-4.976-1.278-7H1011v7zm0 2H1011v7h4.704c.72-2.025 1.182-4.429 1.277-7zm-13.962 0c.095 2.571.557 4.975 1.277 7H1009v-7z"/><linearGradient id="n9wmb" x1="1042" x2="978" y1="1348" y2="1296" gradientUnits="userSpaceOnUse"><stop offset="0" stop-color="#ff8400"/><stop offset="1" stop-color="#9f00da"/></linearGradient></defs><g><g transform="translate(-978 -1290)"><use xlink:href="#n9wma"/><use fill="url(#n9wmb)" xlink:href="#n9wma"/></g></g></svg>