<svg xmlns="http://www.w3.org/2000/svg" xmlns:xlink="http://www.w3.org/1999/xlink" width="56" height="64"><defs><path id="jhmea" d="M438 1068h-33v-57h10v2h-4v47h22v2h-24v-49h-2v53h31zm13-31h-2v-24h-2v24h-2v-24h-4v-2h10zm-12-20h-22v-8h5.076c.448-2.912 2.846-5 5.924-5 3.078 0 5.476 2.088 5.924 5H439zm-20-2h18v-4h-5v-1c0-2.317-1.683-4-4-4s-4 1.683-4 4v1h-5zm30 29h-2v-3h-2v-2h6v2h-2zm-1 13c-1.103 0-2-.898-2-2a2 2 0 1 1 3.731-1H457v1c0 4.794-4.206 9-9 9-4.963 0-9-4.038-9-9 0-4.963 4.037-9 9-9v2c-3.86 0-7 3.14-7 7s3.14 7 7 7c3.605 0 6.39-2.994 6.912-6h-5.18c-.347.597-.993 1-1.732 1zm0 11c-7.168 0-13-5.832-13-13 0-3.176 1.164-6.152 3.132-8.454l-1.839-1.839 1.414-1.414 1.838 1.837a12.91 12.91 0 0 1 4.987-2.66l.531 1.927c-4.747 1.31-8.063 5.671-8.063 10.603 0 6.065 4.935 11 11 11s11-4.935 11-11c0-4.922-3.309-9.28-8.046-10.6l.537-1.926a12.913 12.913 0 0 1 4.964 2.656l1.838-1.837 1.414 1.414-1.84 1.84A13.009 13.009 0 0 1 461 1055c0 7.168-5.832 13-13 13zm-11-35c0-.18.024-.353.068-.518l-4.55-4.55a1.994 1.994 0 0 1-1.036 0l-4.55 4.55A2.003 2.003 0 0 1 425 1035a2.003 2.003 0 0 1-1.932-2.518l-5.55-5.55A2.002 2.002 0 0 1 415 1025c0-1.103.897-2 2-2a2.003 2.003 0 0 1 1.932 2.518l5.55 5.55a1.994 1.994 0 0 1 1.036 0l4.55-4.55A2.002 2.002 0 0 1 432 1024a2.002 2.002 0 0 1 1.932 2.518l4.55 4.55A2.003 2.003 0 0 1 441 1033c0 1.102-.898 2-2 2-1.103 0-2-.898-2-2zm-20 8h-2v-2h2zm4 0h-2v-2h2zm4 0h-2v-2h2zm6 4h-10v-2h10zm-12 0h-4v-2h4zm12 4h-4v-2h4zm-6 0h-10v-2h10zm-4 4h-6v-2h6z"/><linearGradient id="jhmeb" x1="461" x2="405" y1="1059" y2="1013" gradientUnits="userSpaceOnUse"><stop offset="0" stop-color="#ff8400"/><stop offset="1" stop-color="#9f00da"/></linearGradient></defs><g transform="translate(-405 -1004)"><use fill="#fff" xlink:href="#jhmea"/><use fill="url(#jhmeb)" xlink:href="#jhmea"/></g></svg>