<svg xmlns="http://www.w3.org/2000/svg" xmlns:xlink="http://www.w3.org/1999/xlink" width="64" height="56"><defs><path id="236ra" d="M1071.942 1062h-43.895v-11h-5.985v-2h5.985v-12h-7.98v-2h7.98v-9.586l-9.683-9.707a1 1 0 0 1 .705-1.707h4.988v2h-2.58l5.85 5.864-3.247-14.647a.998.998 0 0 1 .974-1.217h49.881a.998.998 0 0 1 .974 1.217l-3.247 14.647 5.85-5.864h-2.58v-2h4.989a1 1 0 0 1 .705 1.707l-9.684 9.707zm-41.9-2h39.905v-34h-39.904v9h3.99v2h-3.99v12h1.995v2h-1.995zm43.649-52h-47.392l3.546 16h40.3zm-47.639 23h-7.98v-2h7.98zm0 13h-7.98v-2h7.98zm0 14h-5.986v-2h5.986zm34.916-7h-21.947a.998.998 0 0 1-.998-1v-14c0-.553.447-1 .998-1h13.966v2h-12.968v12h19.952v-7h1.995v8c0 .552-.446 1-.998 1zm-9.976-5a.992.992 0 0 1-.705-.293l-4.988-5 1.41-1.414 4.283 4.293 10.269-10.293 1.41 1.414-10.973 11a.993.993 0 0 1-.706.293zm19.953-34h-41.9v-2h41.9zm-30.926 21h-1.996v-2h1.996zm3.99 0h-1.995v-2h1.995zm3.99 0h-1.995v-2H1048z"/><linearGradient id="236rb" x1="1082.07" x2="1018.07" y1="1060" y2="1008" gradientUnits="userSpaceOnUse"><stop offset="0" stop-color="#ff8400"/><stop offset="1" stop-color="#9f00da"/></linearGradient></defs><g transform="translate(-1018 -1006)"><use xlink:href="#236ra"/><use fill="url(#236rb)" xlink:href="#236ra"/></g></svg>