<svg xmlns="http://www.w3.org/2000/svg" xmlns:xlink="http://www.w3.org/1999/xlink" width="64" height="64"><defs><path id="1ibha" d="M1100 7575c-2.757 0-5-2.243-5-5v-19h-2c-1.654 0-3-1.346-3-3 0-1.326.864-2.453 2.058-2.849-5.953-2.94-10.058-9.075-10.058-16.151 0-9.925 8.075-18 18-18s18 8.075 18 18c0 7.076-4.105 13.212-10.058 16.151A3.006 3.006 0 0 1 1110 7548c0 1.654-1.346 3-3 3h-2v19c0 2.757-2.243 5-5 5zm-3-5c0 1.654 1.346 3 3 3s3-1.346 3-3v-19h-6zm-4-23a1.001 1.001 0 0 0 0 2h14a1 1 0 0 0 0-2zm8 14h-2v-2h2zm0 4h-2v-2h2zm0 4h-2v-2h2zm-1-56c-8.822 0-16 7.177-16 16 0 8.822 7.178 16 16 16s16-7.178 16-16c0-8.823-7.178-16-16-16zm31 3c0-1.655-1.346-3-3-3s-3 1.345-3 3v19h6zm-8 0c0-2.757 2.243-5 5-5s5 2.243 5 5v19h2c1.654 0 3 1.345 3 3a3.005 3.005 0 0 1-2.058 2.848c5.953 2.94 10.058 9.075 10.058 16.152 0 9.925-8.075 18-18 18s-18-8.075-18-18c0-7.077 4.105-13.212 10.058-16.152A3.005 3.005 0 0 1 1118 7538c0-1.655 1.346-3 3-3h2zm-2 21a1.001 1.001 0 0 0 0 2h14a1 1 0 0 0 0-2zm8-10h-2v-2h2zm0-4h-2v-2h2zm0-4h-2v-2h2zm-1 22c-8.822 0-16 7.177-16 16 0 8.822 7.178 16 16 16s16-7.178 16-16c0-8.823-7.178-16-16-16zm-23-4h-2v-6h-6v6h-2v-12c0-2.206 1.794-4 4-4h2c2.206 0 4 1.794 4 4zm-2-12c0-1.103-.898-2-2-2h-2c-1.103 0-2 .897-2 2v4h6zm20 40v-16h6c2.206 0 4 1.794 4 4v1a3.992 3.992 0 0 1-1.357 3 3.992 3.992 0 0 1 1.357 3v1c0 2.205-1.794 4-4 4zm2-7v5h4c1.102 0 2-.898 2-2v-1c0-1.103-.898-2-2-2zm0-7v5h4c1.102 0 2-.897 2-2v-1c0-1.103-.898-2-2-2zm-25-8c-7.72 0-14-6.28-14-14s6.28-14 14-14 14 6.28 14 14-6.28 14-14 14zm0-26c-6.617 0-12 5.383-12 12s5.383 12 12 12 12-5.384 12-12c0-6.617-5.383-12-12-12zm28 54c-7.72 0-14-6.28-14-14s6.28-14 14-14 14 6.28 14 14-6.28 14-14 14zm0-26c-6.617 0-12 5.383-12 12 0 6.616 5.383 12 12 12s12-5.384 12-12c0-6.617-5.383-12-12-12z"/><linearGradient id="1ibhb" x1="1146" x2="1082" y1="7569" y2="7517" gradientUnits="userSpaceOnUse"><stop offset="0" stop-color="#ff8400"/><stop offset="1" stop-color="#9f00da"/></linearGradient></defs><g transform="translate(-1082 -7511)"><use fill="#2d2032" xlink:href="#1ibha"/><use fill="url(#1ibhb)" xlink:href="#1ibha"/></g></svg>