<svg xmlns="http://www.w3.org/2000/svg" xmlns:xlink="http://www.w3.org/1999/xlink" width="64" height="64"><defs><path id="jnjca" d="M1407 7510h40v30.586l6.586-6.586H1449v-2h8v42h-64v-42h8v2h-4.586l6.586 6.586V7514h4zm0 34.586V7516h-2v26.586zm38-32.587h-36v34.587l5.707 5.707-1.414 1.414-18.293-18.293v35.546l30-23.225 30 23.225v-35.546l-18.293 18.293-1.414-1.414 9.707-9.707zm-20 38.265L1396.926 7572h56.148zm1 17.736h-2v-2h2zm4 0h-2v-2h2zm-8 0h-2v-2h2zm5-22c-6.066 0-11-4.935-11-11s4.934-11 11-11c6.065 0 11 4.935 11 11s-4.935 11-11 11zm0-20c-4.963 0-9 4.037-9 9s4.037 9 9 9 9-4.037 9-9-4.037-9-9-9zm-14-10h-2v-2h2zm4 0h-2v-2h2zm4 0h-2v-2h2zm22 4h-32v-2h32zm-17 19.414l-4.707-4.707 1.414-1.414 3.293 3.292 5.293-5.292 1.414 1.414z"/><linearGradient id="jnjcb" x1="1457" x2="1393" y1="7568" y2="7516" gradientUnits="userSpaceOnUse"><stop offset="0" stop-color="#ff8400"/><stop offset="1" stop-color="#9f00da"/></linearGradient></defs><g transform="translate(-1393 -7510)"><use fill="#2d2032" xlink:href="#jnjca"/><use fill="url(#jnjcb)" xlink:href="#jnjca"/></g></svg>