<svg xmlns="http://www.w3.org/2000/svg" xmlns:xlink="http://www.w3.org/1999/xlink" width="64" height="64"><defs><path id="r78pa" d="M1041 1236h-56v-2h16.86a32.17 32.17 0 0 1-18.86-18.86V1232h-2v-56h2v16.859a32.077 32.077 0 0 1 7.177-11.268l-5.884-5.884 1.414-1.415 5.915 5.916c5.67-5.101 13.168-8.208 21.378-8.208 17.645 0 32 14.355 32 32 0 8.209-3.108 15.707-8.208 21.378l5.915 5.915-1.414 1.413-5.884-5.884a32.078 32.078 0 0 1-11.268 7.177H1041zm-58 0h-2v-2h2zm62 0h-2v-2h2zm-62-62h-2v-2h2zm21 33a.998.998 0 0 1-.707-.294l-8-8 1.414-1.414 7.019 7.02 6.38-12.76a1 1 0 0 1 .894-.553h18v2h-17.382l-6.724 13.448a1 1 0 0 1-.894.552zm15.707-2.293l-1.414-1.415 2.793-2.793-2.793-2.793 1.414-1.413 2.793 2.792 2.793-2.792 1.414 1.413-2.793 2.793 2.793 2.793-1.414 1.415-2.793-2.794zm-6.707-30.708c-7.658 0-14.655 2.885-19.962 7.624l11.669 11.67-1.414 1.413-11.702-11.702c-5.312 5.415-8.591 12.83-8.591 20.995 0 16.542 13.458 30 30 30 8.166 0 15.58-3.28 20.995-8.59l-22.702-22.703 1.414-1.414 22.669 22.67c4.74-5.307 7.624-12.305 7.624-19.963 0-16.542-13.458-30-30-30z"/><linearGradient id="r78pb" x1="1045" x2="981" y1="1230" y2="1178" gradientUnits="userSpaceOnUse"><stop offset="0" stop-color="#ff8400"/><stop offset="1" stop-color="#9f00da"/></linearGradient></defs><g transform="translate(-981 -1172)"><use xlink:href="#r78pa"/><use fill="url(#r78pb)" xlink:href="#r78pa"/></g></svg>