<svg xmlns="http://www.w3.org/2000/svg" xmlns:xlink="http://www.w3.org/1999/xlink" width="56" height="64"><defs><path id="c1zfa" d="M1009 917l-.377-.154c-.276-.113-27.623-11.682-27.623-49.866v-4.994h14c6.377 0 12.111-8.459 12.168-8.544l.297-.445h3.07l.296.445c.058.085 5.792 8.544 12.169 8.544h14v4.994c0 38.184-27.347 49.753-27.623 49.866zm-26-53.016v2.996c0 34.353 22.767 46.322 26 47.845 3.233-1.523 26-13.492 26-47.845v-2.996h-12c-6.598 0-12.158-7.099-13.521-8.99h-.958c-1.363 1.891-6.923 8.99-13.521 8.99zm26 47.082l-.48-.261c-.224-.123-22.52-12.618-22.52-42.826v-.999h9c9.26 0 12.98-6.226 13.133-6.49l.872-1.502.863 1.504c.152.262 3.872 6.488 13.132 6.488h9v1c0 30.207-22.296 42.702-22.521 42.825zm-20.992-42.088c.359 21.146 12.082 33.017 18.052 37.704-2.943-5.987-7.922-18.896-8.057-37.913-.938.134-1.938.209-3.003.209zm41.984 0H1023c-1.065 0-2.065-.075-3.003-.209-.135 19.017-5.114 31.926-8.057 37.913 5.97-4.687 17.693-16.558 18.052-37.704zM1009 862.712c-1.314 1.631-4.172 4.437-9 5.663.08 21.48 6.64 35.303 9 39.583 2.359-4.28 8.92-18.103 9-39.583-4.828-1.226-7.686-4.032-9-5.663zm1 10.26h-2v-1.996h2zm0-3.994h-2v-1.998h2zm0 7.99h-2v-1.997h2zm-16-3.995h-2v-1.997h2zm0 3.995h-2v-1.997h2zm32-3.995h-2v-1.997h2zm0 3.995h-2v-1.997h2z"/><linearGradient id="c1zfb" x1="1037" x2="981" y1="908" y2="862" gradientUnits="userSpaceOnUse"><stop offset="0" stop-color="#ff8400"/><stop offset="1" stop-color="#9f00da"/></linearGradient></defs><g transform="translate(-981 -853)"><use xlink:href="#c1zfa"/><use fill="url(#c1zfb)" xlink:href="#c1zfa"/></g></svg>