<svg xmlns="http://www.w3.org/2000/svg" xmlns:xlink="http://www.w3.org/1999/xlink" width="58" height="64"><defs><path id="pi7ga" d="M1007.991 1121c-15.389 0-27.909-12.56-27.909-28a27.942 27.942 0 0 1 7.492-19.07l-1.51-1.517-2.287 2.294a.993.993 0 0 1-1.41 0l-2.99-3a1.002 1.002 0 0 1 0-1.415l5.981-6a.993.993 0 0 1 1.41 0l2.99 3c.39.391.39 1.023 0 1.415l-2.285 2.292 1.51 1.516c4.116-3.847 9.388-6.463 15.229-7.26a4.988 4.988 0 0 1-1.204-3.256c0-2.756 2.236-5 4.984-5 2.747 0 4.983 2.244 4.983 5a4.99 4.99 0 0 1-1.204 3.256c5.841.797 11.114 3.414 15.23 7.26l1.51-1.515-2.286-2.293a1.002 1.002 0 0 1 0-1.414l2.99-3a.993.993 0 0 1 1.41 0l5.98 6a1 1 0 0 1 0 1.413l-2.99 3a.993.993 0 0 1-1.41 0l-2.284-2.292-1.51 1.516a27.946 27.946 0 0 1 7.49 19.07c0 15.439-12.52 28-27.91 28zm0-54c-14.29 0-25.915 11.662-25.915 26 0 14.336 11.625 26 25.915 26s25.916-11.664 25.916-26c0-14.338-11.625-26-25.916-26zm0-8a2.998 2.998 0 0 0-2.99 3c0 1.303.833 2.415 1.994 2.828v-2.829h1.993v2.829a3.004 3.004 0 0 0 1.994-2.829c0-1.654-1.342-3-2.99-3zm.997 12h-1.993v-2h1.993zm-15.656 35.293l11.225-11.263a3.998 3.998 0 0 1 3.434-6.031 3.998 3.998 0 0 1 3.988 4c0 2.206-1.789 4-3.988 4-.738 0-1.43-.202-2.024-.555l-5.7 5.719a11.854 11.854 0 0 0 7.724 2.837c6.596 0 11.961-5.384 11.961-12 0-6.618-5.365-12-11.96-12v-2c7.694 0 13.954 6.28 13.954 14s-6.26 14-13.955 14a13.83 13.83 0 0 1-9.137-3.419l-2.825 2.834a17.778 17.778 0 0 0 11.962 4.585c9.893 0 17.942-8.076 17.942-18 0-9.926-8.049-18-17.942-18v-2c10.993 0 19.936 8.971 19.936 20 0 11.027-8.943 20-19.936 20-5.323 0-10.328-2.08-14.093-5.856l.141-.142zm-7.27-12.293h-1.993v-2h1.994zm45.852 0h-1.994v-2h1.994zm-22.926 23h-1.993v-2h1.993zm-.997-26a2 2 0 0 0 0 4 2 2 0 0 0 0-4zm-26.5-20l1.582 1.586 4.57-4.586-1.58-1.587zm46.848-3l4.571 4.586 1.581-1.587-4.571-4.586zm-38.29 26h-1.993v-2h1.994zm3.988 0h-1.994v-2h1.994zm3.987 0h-1.994v-2h1.994zm3.987 0h-1.994v-2h1.994z"/><linearGradient id="pi7gb" x1="1037.09" x2="979.09" y1="1112" y2="1066" gradientUnits="userSpaceOnUse"><stop offset="0" stop-color="#ff8400"/><stop offset="1" stop-color="#9f00da"/></linearGradient></defs><g transform="translate(-979 -1057)"><use xlink:href="#pi7ga"/><use fill="url(#pi7gb)" xlink:href="#pi7ga"/></g></svg>